<?xml version="1.0" standalone="no"?>
<!DOCTYPE svg PUBLIC "-//W3C//DTD SVG 20010904//EN"
 "http://www.w3.org/TR/2001/REC-SVG-20010904/DTD/svg10.dtd">
<svg version="1.0" xmlns="http://www.w3.org/2000/svg"
 width="651.000000pt" height="650.000000pt" viewBox="0 0 651.000000 650.000000"
 preserveAspectRatio="xMidYMid meet">
<metadata>
Created by potrace 1.16, written by Peter Selinger 2001-2019
</metadata>
<g transform="translate(0.000000,650.000000) scale(0.100000,-0.100000)"
fill="#000000" stroke="none">
<path d="M4958 2307 c-9 -23 -41 -102 -71 -174 -48 -116 -53 -133 -37 -133 13
0 24 14 36 45 l17 45 73 0 72 0 18 -45 c11 -31 23 -45 35 -45 21 0 24 -8 -67
214 -61 147 -57 143 -76 93z"/>
<path d="M2100 2170 c0 -143 2 -170 15 -170 12 0 15 22 17 120 l3 119 85 -120
c46 -66 88 -123 92 -125 4 -3 8 72 8 165 0 163 -1 171 -20 171 -18 0 -20 -8
-22 -116 l-3 -116 -84 121 c-47 67 -86 121 -88 121 -2 0 -3 -76 -3 -170z"/>
<path d="M2906 2332 c-7 -12 -136 -323 -136 -329 0 -1 8 -3 18 -3 12 0 23 14
33 43 l16 42 75 3 75 3 13 -42 c13 -39 34 -59 47 -46 3 3 -23 75 -57 159 -74
182 -75 184 -84 170z"/>
<path d="M3466 2332 c-7 -12 -136 -323 -136 -329 0 -1 8 -3 18 -3 12 0 23 14
33 43 l16 42 75 3 75 3 13 -42 c13 -39 34 -59 47 -46 3 3 -23 75 -57 159 -74
182 -75 184 -84 170z"/>
<path d="M1420 2315 c0 -11 11 -15 40 -15 l39 0 3 -147 c3 -131 5 -148 21
-151 16 -3 17 9 17 147 l0 151 40 0 c29 0 40 4 40 15 0 12 -18 15 -100 15 -82
0 -100 -3 -100 -15z"/>
<path d="M1722 2195 l3 -137 33 -29 c27 -24 41 -29 85 -29 102 0 127 43 127
215 0 108 -1 115 -20 115 -19 0 -20 -7 -20 -129 0 -128 0 -130 -26 -150 -44
-35 -129 -21 -139 23 -3 12 -6 73 -8 136 -2 102 -4 115 -20 118 -17 4 -18 -5
-15 -133z"/>
<path d="M2440 2315 c0 -12 17 -15 90 -15 50 0 90 -2 90 -6 0 -3 -17 -31 -38
-62 -22 -31 -64 -96 -95 -144 l-57 -88 125 0 c104 0 125 2 125 15 0 12 -17 15
-95 15 l-94 0 94 145 c52 80 95 148 95 150 0 3 -54 5 -120 5 -100 0 -120 -2
-120 -15z"/>
<path d="M3720 2165 c0 -158 1 -165 20 -165 18 0 20 7 20 75 l0 75 75 0 c60 0
75 3 75 15 0 12 -15 15 -75 15 l-75 0 0 60 0 60 80 0 c64 0 80 3 80 15 0 12
-18 15 -100 15 l-100 0 0 -165z"/>
<path d="M4030 2166 c0 -141 2 -166 15 -166 12 0 15 14 15 65 0 61 1 65 23 65
16 0 34 -18 67 -65 34 -49 51 -65 69 -65 26 0 28 -3 -34 74 -30 38 -36 51 -25
54 8 3 30 20 48 38 42 42 43 82 3 126 -27 30 -34 33 -105 36 l-76 4 0 -166z
m157 108 c17 -23 17 -65 -1 -89 -9 -13 -30 -20 -70 -23 l-56 -4 0 64 c0 36 3
68 8 72 14 15 105 0 119 -20z"/>
<path d="M4570 2165 c0 -138 2 -165 15 -165 11 0 15 17 17 76 l3 77 54 -77
c34 -48 61 -76 73 -76 10 0 18 2 18 5 0 3 -25 39 -55 79 -30 40 -55 76 -55 79
0 4 25 41 55 82 30 40 55 76 55 79 0 4 -8 6 -18 6 -12 0 -39 -28 -73 -76 l-54
-77 -3 77 c-2 59 -6 76 -17 76 -13 0 -15 -27 -15 -165z"/>
</g>
</svg>
